. 
 
http://www.torrenting.com          :     Once & For all ;)


               www . Torrenting . Com 

(((((((((((((= Enjoy No RAR releases =))))))))))))))))))))


...................................NFO:....................................

.[IMG]http://img444.imageshack.us/img444/8883/jedgarmovie.jpg[/IMG]

Complete name                    : J.Edgar.2011.BRRip.READNFO.x264.AC3-DTRG.mkv
Format                           : Matroska
Format version                   : Version 2
File size                        : 1.37 GiB
Duration                         : 2h 16mn
Overall bit rate                 : 1 430 Kbps
Encoded date                     : UTC 2012-02-11 14:11:52
Writing application              : mkvmerge v5.2.1 ('A Far Off Place') built on Jan  2 2012 23:21:10
Writing library                  : libebml v1.2.3 + libmatroska v1.3.0

Video
ID                               : 1
Format                           : AVC
Format/Info                      : Advanced Video Codec
Format profile                   : Main@L4.2
Format settings, CABAC           : Yes
Format settings, ReFrames        : 4 frames
Codec ID                         : V_MPEG4/ISO/AVC
Duration                         : 2h 16mn
Bit rate                         : 981 Kbps
Width                            : 720 pixels
Height                           : 304 pixels
Display aspect ratio             : 2.35:1
Frame rate                       : 23.976 fps
Color space                      : YUV
Chroma subsampling               : 4:2:0
Bit depth                        : 8 bits
Scan type                        : Progressive
Bits/(Pixel*Frame)               : 0.187
Stream size                      : 934 MiB (67%)
Writing library                  : x264 core 120 r2146 bcd41db
Language                         : English
Default                          : Yes
Forced                           : No
Source                           : 720p HDC, cheers...

Audio
ID                               : 2
Format                           : AC-3
Format/Info                      : Audio Coding 3
Mode extension                   : CM (complete main)
Codec ID                         : A_AC3
Duration                         : 2h 16mn
Bit rate mode                    : Constant
Bit rate                         : 448 Kbps
Channel(s)                       : 6 channels
Channel positions                : Front: L C R, Side: L R, LFE
Sampling rate                    : 48.0 KHz
Bit depth                        : 16 bits
Compression mode                 : Lossy
Stream size                      : 439 MiB (31%)
Default                          : Yes
Forced                           : No
Source                           : 720p SPARKS, cheers...

iMDB: http://www.imdb.com/title/tt1616195/

Encoder: Kareemzos..

DTRG bringing the p2p world yet another release, J Edgar 2011 BRRip.......

straight forward encode tbh, sharpened and x264'd it...
readnfo is for 1 reason, the colors aren't right
on this but tbh with ya its bluray so
i hate messing with them so left them untouched...
take it or leave it, there's plenty of releases out there....
check the sample before downloading because the screens cant tell you the real Q of
the release, enjoy folks.....

[b][i][size=6]SCREENSHOTS:[/b][/i][/size]

[[IMG]http://img7.imageshack.us/img7/7531/58867973.png[/IMG]
[IMG]http://img513.imageshack.us/img513/9936/84839207.png[/IMG]
[IMG]http://img816.imageshack.us/img816/8133/27645079.png[/IMG]
[IMG]http://img528.imageshack.us/img528/2685/11420796.png[/IMG]
[IMG]http://img41.imageshack.us/img41/6779/19847716.png[/IMG]
[IMG]http://img269.imageshack.us/img269/4681/22197172.png[/IMG]
[IMG]http://img593.imageshack.us/img593/8551/93735083.png[/IMG]
[IMG]http://img69.imageshack.us/img69/8711/28459832.png[/IMG]
[IMG]http://img443.imageshack.us/img443/558/69447483govc.png[/IMG]
[IMG]http://img269.imageshack.us/img269/7780/55155063.png[/IMG]
[IMG]http://img408.imageshack.us/img408/5797/66183328.png[/IMG]
[IMG]http://img196.imageshack.us/img196/5397/68608314.png[/IMG]
[IMG]http://img195.imageshack.us/img195/7175/72293264.png[/IMG]
[IMG]http://img802.imageshack.us/img802/7594/41106037.png[/IMG]
[IMG]http://img696.imageshack.us/img696/6695/89106667.png[/IMG]

Greetz to EMBER, ETRG, BHRG, FYA, 26k, CreWSaDe, RemixHD, LEGiTiMATE.......and maybe many more...........